<?xml version="1.0" encoding="iso-8859-1"?>
<!-- Generator: Adobe Illustrator 19.0.0, SVG Export Plug-In . SVG Version: 6.00 Build 0)  -->
<svg version="1.1" id="Capa_1" xmlns="http://www.w3.org/2000/svg" xmlns:xlink="http://www.w3.org/1999/xlink" x="0px" y="0px"
	 viewBox="0 0 512 512" style="enable-background:new 0 0 512 512;" xml:space="preserve">
<path style="fill:#9B735A;" d="M180.131,492.711v-21.454c0-6.785,5.5-12.286,12.286-12.286h56.744l6.293-86.44l7.954,0.548
	c4.803,0.331,9.505,0.498,13.978,0.498c4.112,0,8.362-0.134,12.632-0.399l7.904-0.491l6.281,86.283h54.744
	c6.785,0,12.286,5.5,12.286,12.286v21.454c0,6.785-5.5,12.286-12.286,12.286H192.417
	C185.631,504.996,180.131,499.495,180.131,492.711z"/>
<g>
	<path style="fill:#7F553E;" d="M293.924,373.08c1.358,0.094,2.705,0.17,4.044,0.238l-0.046-0.629l-5.093,0.316L293.924,373.08z"/>
	<path style="fill:#7F553E;" d="M280.174,373.578c-2.877,0.122,0,0-2.788,0c-4.473,0-9.176-0.167-13.978-0.498l-7.954-0.548
		l-6.293,86.44h20.205c5.704,0,10.339-4.606,10.372-10.311L280.174,373.578z"/>
	<path style="fill:#7F553E;" d="M210.648,492.711v-21.454c0-6.785,5.5-12.286,12.286-12.286h-30.516
		c-6.785,0-12.286,5.5-12.286,12.286v21.454c0,6.785,5.5,12.286,12.286,12.286h30.516
		C216.148,504.996,210.648,499.495,210.648,492.711z"/>
</g>
<path style="fill:#00C3FF;" d="M276.384,335.506c-90.568,0-164.251-73.683-164.251-164.252S185.816,7.004,276.384,7.004
	s164.251,73.682,164.251,164.251S366.952,335.506,276.384,335.506z"/>
<path style="fill:#05ACD3;" d="M333.89,277.999c-90.568,0-164.251-73.683-164.251-164.252c0-30.566,8.402-59.204,23.004-83.74
	c-48.165,28.663-80.511,81.244-80.511,141.246c0,90.568,73.683,164.252,164.251,164.252c60.001,0,112.582-32.346,141.246-80.511
	C393.094,269.597,364.457,277.999,333.89,277.999z"/>
<path style="fill:#B4E66E;" d="M410.823,199.809l-29.049,6.01l-4.909-1.732c-2.12-0.748-4.333-1.128-6.576-1.128
	c-5.5,0-10.794,2.325-14.522,6.377l-14.396,15.65l-8.967,8.577c-3.49,3.338-5.192,8.005-4.669,12.811
	c0.524,4.802,3.193,8.993,7.323,11.501l11.654,7.077l23.782-13.872l5.863,13.681l27.079,10.471c1.326-1.618,2.619-3.263,3.884-4.931
	c0.586-0.772,1.163-1.551,1.733-2.332c0.177-0.242,0.355-0.484,0.531-0.728c0.533-0.737,1.059-1.481,1.579-2.225
	c0.213-0.306,0.426-0.612,0.637-0.919c0.478-0.694,0.951-1.393,1.417-2.094c0.252-0.378,0.501-0.757,0.75-1.139
	c0.423-0.647,0.843-1.297,1.257-1.949c0.285-0.45,0.566-0.904,0.847-1.356c0.373-0.601,0.745-1.203,1.11-1.809
	c0.312-0.519,0.619-1.042,0.927-1.565c0.327-0.557,0.656-1.114,0.978-1.675c0.334-0.585,0.66-1.177,0.989-1.766
	c0.286-0.514,0.575-1.028,0.855-1.545c0.353-0.652,0.696-1.312,1.041-1.97c0.247-0.47,0.499-0.939,0.741-1.412
	c0.405-0.792,0.797-1.592,1.19-2.391c0.484-0.987,0.957-1.979,1.422-2.975c0.208-0.447,0.422-0.89,0.626-1.34
	c0.356-0.782,0.699-1.571,1.043-2.358c0.153-0.35,0.31-0.699,0.46-1.051c0.364-0.851,0.716-1.707,1.067-2.564
	c0.116-0.284,0.234-0.567,0.348-0.852c0.367-0.914,0.723-1.834,1.075-2.755c0.084-0.22,0.168-0.439,0.251-0.66
	c0.368-0.981,0.726-1.964,1.076-2.953c0.053-0.151,0.106-0.301,0.159-0.452c0.367-1.049,0.724-2.1,1.071-3.158
	c0.025-0.076,0.05-0.153,0.074-0.229c0.364-1.117,0.717-2.238,1.059-3.364l0.006-0.02c0.647-2.143,1.263-4.301,1.824-6.48
	L410.823,199.809z"/>
<path style="fill:#A0D755;" d="M403.417,275.221c1.859-2.267,3.669-4.576,5.406-6.942c0.058-0.079,0.118-0.157,0.176-0.237
	c1.004-1.373,1.988-2.76,2.95-4.164c0.077-0.112,0.148-0.227,0.24-0.33c1.035-1.159,1.783-2.533,2.555-3.881
	c0.049-0.085,0.104-0.167,0.157-0.251c0.009-0.015,0.019-0.029,0.028-0.044c0.726-1.139-0.554-2.485-1.737-1.831
	c-8.196,4.535-16.821,8.384-25.792,11.486L403.417,275.221z"/>
<path style="fill:#B4E66E;" d="M395.451,112.998l9.48,1.997c0.944,0.199,1.912,0.299,2.877,0.299c1.605,0,3.186-0.273,4.694-0.812
	l15.804-5.635c-1.132-2.745-2.332-5.456-3.606-8.125c-0.81-1.697-1.651-3.376-2.516-5.04c-0.109-0.209-0.22-0.416-0.33-0.624
	c-0.753-1.435-1.529-2.856-2.323-4.264c-0.144-0.256-0.285-0.514-0.43-0.769c-0.836-1.467-1.699-2.918-2.578-4.355
	c-0.291-0.474-0.589-0.944-0.884-1.415c-0.601-0.961-1.215-1.913-1.835-2.861c-0.38-0.58-0.757-1.163-1.145-1.738
	c-0.796-1.184-1.611-2.355-2.437-3.517c-0.542-0.76-1.097-1.512-1.652-2.263c-0.386-0.524-0.776-1.046-1.169-1.565
	c-2.069-2.732-4.219-5.4-6.451-7.995c-0.261-0.304-0.523-0.607-0.786-0.909c-2.295-2.63-4.673-5.187-7.129-7.666
	c-0.349-0.352-0.698-0.703-1.051-1.053c-0.749-0.743-1.502-1.484-2.265-2.212c-0.533-0.508-1.078-1.008-1.618-1.509
	c-1.046-0.972-2.103-1.931-3.174-2.876c-0.681-0.6-1.366-1.197-2.056-1.786c-0.556-0.475-1.113-0.95-1.676-1.417
	c-1.214-1.008-2.439-2.002-3.684-2.976c-0.315-0.247-0.636-0.487-0.954-0.732c-1.17-0.901-2.35-1.79-3.546-2.661
	c-0.27-0.197-0.538-0.395-0.808-0.59c-3.046-2.192-6.172-4.288-9.378-6.279c-0.262-0.163-0.523-0.33-0.786-0.491l-0.651-0.404
	c-1.736-1.055-3.499-2.068-5.276-3.06l-17.717,25.414c-2.713,3.89-3.76,8.605-2.947,13.275l2.771,15.886v24.985
	c0,4.362,2.934,8.235,7.135,9.417l19.929,5.605c1.137,0.318,2.311,0.479,3.491,0.479c2.45,0,4.84-0.69,6.91-1.998l9.309-5.879
	c2.269-1.433,4.869-2.19,7.518-2.19C393.487,112.69,394.479,112.794,395.451,112.998z"/>
<path id="SVGCleanerId_0" style="fill:#B4E66E;" d="M244.313,287.534l-0.32-0.018c-2.937-0.174-5.524-1.726-7.074-4.254
	l-7.728-12.696l-5.072-20.288l6.173-10.101c3.14-5.137,8.828-8.326,14.846-8.326h13.344c6.386,0,12.272,3.734,14.991,9.513
	l7.716,16.401c1.101,2.327,1.209,4.951,0.301,7.375c-0.924,2.445-2.738,4.349-5.12,5.379l-21.383,9.266l-3.402,4.33
	c-1.708,2.174-4.268,3.421-7.022,3.421L244.313,287.534L244.313,287.534z"/>
<g>
	<path id="SVGCleanerId_0_1_" style="fill:#B4E66E;" d="M244.313,287.534l-0.32-0.018c-2.937-0.174-5.524-1.726-7.074-4.254
		l-7.728-12.696l-5.072-20.288l6.173-10.101c3.14-5.137,8.828-8.326,14.846-8.326h13.344c6.386,0,12.272,3.734,14.991,9.513
		l7.716,16.401c1.101,2.327,1.209,4.951,0.301,7.375c-0.924,2.445-2.738,4.349-5.12,5.379l-21.383,9.266l-3.402,4.33
		c-1.708,2.174-4.268,3.421-7.022,3.421L244.313,287.534L244.313,287.534z"/>
</g>
<path style="fill:#A0D755;" d="M229.911,240.799l-5.793,9.479l5.072,20.288l7.728,12.696c1.551,2.529,4.138,4.08,7.074,4.254
	l0.32,0.018h0.25c2.753,0,5.314-1.247,7.022-3.421l3.402-4.33l21.383-9.266c1.069-0.462,2.016-1.11,2.828-1.894
	C261.112,262.219,244.471,252.736,229.911,240.799z"/>
<path style="fill:#B4E66E;" d="M225.441,15.101c-1.195,0.391-2.384,0.795-3.567,1.213c-0.043,0.015-0.085,0.03-0.128,0.045
	c-1.121,0.396-2.235,0.804-3.345,1.224c-0.14,0.053-0.281,0.107-0.42,0.16c-1.004,0.382-2.001,0.774-2.996,1.176
	c-0.284,0.115-0.566,0.231-0.849,0.348c-0.843,0.346-1.683,0.697-2.519,1.057c-0.485,0.209-0.969,0.422-1.452,0.636
	c-0.628,0.277-1.256,0.555-1.879,0.84c-0.766,0.35-1.529,0.708-2.289,1.071c-0.337,0.16-0.674,0.318-1.011,0.48
	c-24.909,12.073-46.327,30.257-62.296,52.592c-0.115,0.162-0.232,0.322-0.347,0.484c-0.554,0.78-1.098,1.57-1.638,2.36
	c-0.246,0.361-0.495,0.721-0.739,1.085c-0.396,0.59-0.784,1.187-1.174,1.782c-0.36,0.552-0.721,1.103-1.076,1.66
	c-0.263,0.414-0.52,0.832-0.78,1.249c-0.451,0.725-0.903,1.45-1.345,2.183c-0.16,0.265-0.314,0.533-0.473,0.799
	c-0.515,0.867-1.029,1.737-1.529,2.615c-1.508,2.644-2.94,5.337-4.302,8.07l28.986,12.037c0.599,0.248,1.099,0.757,1.333,1.357
	l8.677,22.172h28.038c1.13,0,2.111,0.773,2.376,1.871l6.5,26.929l22.885,17.938c5.202,4.077,12.655-0.58,11.27-7.043L237.2,163.45
	l23.951-27.943l5.044-43.37l-16.552-22.396c-0.31-0.419-0.477-0.926-0.477-1.448V44.119L231.74,13.171
	c-2.116,0.598-4.21,1.246-6.29,1.926L225.441,15.101z"/>
<path style="fill:#A0D755;" d="M170.865,133.798c-0.803-6.574-1.226-13.263-1.226-20.05c0-28.734,7.425-55.763,20.446-79.282
	c0.657-1.188-0.698-2.473-1.842-1.743c-20.602,13.154-38.088,30.775-51.086,51.484c-0.115,0.184-0.228,0.371-0.342,0.556
	c-0.57,0.927-1.15,1.849-1.698,2.789c-0.364,0.624-0.733,1.245-1.095,1.871c-1.664,2.883-3.249,5.816-4.739,8.805l28.992,12.039
	c0.599,0.248,1.099,0.757,1.333,1.357l8.677,22.172L170.865,133.798L170.865,133.798z"/>
<path d="M434.855,106.359c-0.034-0.114-0.062-0.228-0.102-0.341c-0.121-0.338-0.271-0.657-0.433-0.967
	c-14.743-35.039-40.819-64.175-73.612-82.805c-0.042-0.031-0.08-0.065-0.123-0.095c-0.463-0.323-0.951-0.581-1.453-0.786
	C334.589,7.76,306.378,0,276.384,0c-16.053,0-31.595,2.225-46.34,6.374c-0.396,0.078-0.788,0.192-1.175,0.337
	c-17.991,5.203-34.764,13.294-49.802,23.719L158.485,5.035c-3.606-4.446-10.169-5.16-14.633-1.588
	c-38.978,31.207-65.787,75.505-75.487,124.735c-9.767,49.563-1.522,101.092,23.218,145.092c14.563,25.9,33.944,48.007,57.607,65.705
	c22.784,17.042,48.429,29.207,76.22,36.157c7.469,1.868,14.98,3.306,22.515,4.362l-5.275,72.47h-57.468
	c-6.648,0-12.054,5.408-12.054,12.054v35.923c0,6.648,5.407,12.054,12.054,12.054h181c6.648,0,12.054-5.408,12.054-12.054v-35.923
	c0-6.647-5.407-12.054-12.054-12.054h-55.467l-5.259-72.253c1.402-0.186,2.802-0.385,4.203-0.6
	c29.204-4.474,56.704-14.853,81.741-30.845c4.101-2.619,8.157-5.411,12.057-8.293c2.265-1.674,3.729-4.134,4.12-6.928
	c0.388-2.762-0.364-5.616-2.064-7.829l-18.171-23.638c7.647-6.52,14.725-13.688,21.125-21.438c0.504-0.47,0.947-1.017,1.312-1.627
	c14.871-18.458,25.998-40.048,32.213-63.616c0.108-0.318,0.195-0.638,0.259-0.962c3.515-13.649,5.385-27.952,5.385-42.684
	C447.638,148.296,443.086,126.384,434.855,106.359z M417.493,104.205l-7.68,2.738c-1.039,0.371-2.157,0.446-3.235,0.219
	l-9.478-1.996c-5.668-1.192-11.486-0.147-16.386,2.947l-9.31,5.88c-1.18,0.744-2.624,0.955-3.968,0.578l-19.92-5.603
	c-0.764-0.215-1.298-0.918-1.298-1.712V82.271c0-0.431-0.037-0.861-0.111-1.286l-2.777-15.972c-0.448-2.577,0.129-5.179,1.626-7.325
	l13.484-19.341C383.902,54.124,404.516,77.004,417.493,104.205z M227.928,22.709l13.236,23.508v22.077
	c0,2.219,0.727,4.424,2.046,6.208l14.671,19.851l-4.396,37.802l-22.521,26.274c-1.524,1.778-2.131,4.166-1.641,6.455l1.662,7.754
	l-18.658-14.625l-5.848-24.225c-1.136-4.709-5.311-7.997-10.153-7.997h-22.578l-6.686-17.084c-1.031-2.627-3.117-4.755-5.72-5.834
	l-20.851-8.659C159.569,60.694,190.691,34.887,227.928,22.709z M363.229,466.976v30.016H188.136v-30.016h77.541
	c4.145,0,7.504-3.36,7.504-7.504c0-4.144-3.359-7.504-7.504-7.504h-7.98l5.162-70.903c4.838,0.333,9.682,0.517,14.529,0.517
	c4.375,0,8.753-0.143,13.129-0.415l5.74,78.849c0.285,3.922,3.552,6.96,7.484,6.96H363.229z M400.817,265.634l-18.429-7.126
	l-4.759-11.104c-0.847-1.977-2.502-3.495-4.544-4.169c-2.041-0.675-4.276-0.441-6.134,0.643l-20.156,11.757l-7.583-4.604
	c-1.984-1.206-3.268-3.22-3.52-5.528c-0.251-2.308,0.565-4.551,2.244-6.157l8.967-8.577c0.115-0.11,0.227-0.225,0.335-0.342
	l14.419-15.673c3.184-3.461,8.105-4.688,12.543-3.121l5.04,1.779c1.29,0.455,2.678,0.549,4.018,0.272l26.455-5.474l16.259,8.184
	C420.534,234.385,411.934,251.014,400.817,265.634z M429.689,201.463l-15.56-7.833c-1.514-0.761-3.238-0.991-4.895-0.645
	l-26.968,5.58l-3.069-1.084c-10.107-3.566-21.324-0.775-28.582,7.112l-14.257,15.496l-8.397,8.032
	c-4.994,4.777-7.812,11.516-7.243,18.404c0.598,7.237,4.529,13.582,10.708,17.334l11.402,6.922c2.354,1.429,5.298,1.454,7.676,0.067
	l16.679-9.73l2.658,6.203c0.795,1.857,2.306,3.315,4.191,4.043l16.555,6.401c-28.539,30.579-69.173,49.734-114.201,49.734
	c-44.801,0-85.251-18.959-113.768-49.268c-2.866-3.046-7.686-3.103-10.644-0.146c-0.035,0.035-0.071,0.071-0.106,0.106
	c-2.82,2.82-2.942,7.389-0.21,10.294c31.258,33.236,75.61,54.022,124.727,54.022c36.916,0,71.133-11.75,99.129-31.694l15.237,19.823
	c-2.439,1.716-4.926,3.385-7.429,4.984c-46.093,29.444-100.879,38.307-154.271,24.953c-53.398-13.354-97.573-46.971-124.385-94.657
	c-46.853-83.327-27.794-186.814,45.046-247.87l17.392,21.458c-17.941,14.906-32.801,33.399-43.468,54.369
	c-0.243,0.376-0.461,0.775-0.639,1.204c-0.039,0.095-0.067,0.191-0.102,0.287c-11.362,22.887-17.764,48.653-17.764,75.89
	c0,28.765,7.131,55.896,19.716,79.721c2.347,4.444,8.3,5.387,11.854,1.832c0.036-0.037,0.073-0.073,0.11-0.11
	c2.311-2.311,2.824-5.852,1.299-8.743c-11.47-21.729-17.97-46.469-17.97-72.701c0-22.642,4.847-44.171,13.548-63.613l20.111,8.35
	l7.11,18.173c1.579,4.031,5.398,6.637,9.727,6.637h22.1l5.377,22.278c0.55,2.278,1.869,4.329,3.711,5.771l24.392,19.118
	c2.358,1.849,5.156,2.784,7.97,2.784c2.525,0,5.066-0.754,7.309-2.279c4.418-3.002,6.41-8.517,5.291-13.739l-2.006-9.358
	l21.01-24.511c1.359-1.585,2.204-3.52,2.444-5.591l4.766-40.979c0.306-2.642-0.396-5.275-1.977-7.412l-14.849-20.092v-21.77
	c0-1.795-0.462-3.56-1.344-5.125L242.86,18.641c10.804-2.371,22.019-3.633,33.524-3.633c24.701,0,48.077,5.771,68.864,16.021
	l-12.601,18.075c-3.776,5.414-5.232,11.977-4.101,18.481l2.666,15.334v24.338c0,7.52,5.002,14.123,12.242,16.159l19.922,5.603
	c1.769,0.498,3.582,0.742,5.389,0.742c3.736,0,7.442-1.049,10.656-3.079l9.31-5.88c1.579-0.997,3.454-1.334,5.28-0.95l9.478,1.996
	c3.786,0.797,7.719,0.531,11.364-0.767l8.452-3.014c6.032,16.61,9.327,34.52,9.327,53.187
	C432.63,181.588,431.612,191.685,429.689,201.463z"/>
<path d="M279.811,238.381c-3.87-8.222-12.242-13.535-21.328-13.535h-13.344c-8.441,0-16.42,4.474-20.822,11.677l0,0l-6.064,9.922
	c-1.05,1.716-1.365,3.781-0.877,5.732l5.003,20.011c0.184,0.733,0.477,1.436,0.87,2.082l7.674,12.609
	c2.719,4.465,7.458,7.317,12.677,7.629c0.317,0.019,0.634,0.028,0.95,0.028c4.876,0,9.509-2.236,12.543-6.096l2.307-2.936
	l19.762-8.564c4.132-1.791,7.284-5.098,8.875-9.311c1.59-4.213,1.41-8.778-0.508-12.851L279.811,238.381z M273.993,262.331
	c-0.102,0.269-0.323,0.633-0.802,0.84l-21.504,9.318c-1.144,0.496-2.147,1.269-2.917,2.249l-3.481,4.429
	c-0.075,0.096-0.306,0.39-0.798,0.359c-0.493-0.029-0.687-0.347-0.75-0.451l-7.081-11.633l-3.963-15.853l4.424-7.24
	c1.695-2.772,4.767-4.495,8.016-4.495h13.344c3.302,0,6.343,1.931,7.749,4.918l7.716,16.399
	C274.17,261.642,274.095,262.062,273.993,262.331z"/>
<g>
</g>
<g>
</g>
<g>
</g>
<g>
</g>
<g>
</g>
<g>
</g>
<g>
</g>
<g>
</g>
<g>
</g>
<g>
</g>
<g>
</g>
<g>
</g>
<g>
</g>
<g>
</g>
<g>
</g>
</svg>
